<svg xmlns="http://www.w3.org/2000/svg" width="129.159" height="94.75" viewBox="0 0 129.159 94.75"><defs><style>.a{fill:#e8505b;}.b{fill:#e0e0e0;}.c{fill:#4caf50;}.d{fill:none;stroke:#fff;stroke-linejoin:round;stroke-width:5px;}</style></defs><g transform="translate(3484 13102.751)"><g transform="translate(-3484 -13106.751)"><g transform="translate(109.299 58.506)"><path class="a" d="M298.311,206.643c-.974-3.45-5.456-3.115-5.456-3.115l.123,2.4c2.591-.448,4.2,2.589,4.2,2.589Z" transform="translate(-292.855 -203.519)"/></g><g transform="translate(11.702 84.546)"><path class="b" d="M222.479,212.41c-.973-3.45-5.455-3.115-5.455-3.115l.123,2.4c2.591-.446,4.2,2.589,4.2,2.589Z" transform="translate(-217.024 -209.286)"/></g><g transform="translate(75.319 10.918)"><path class="b" d="M263.439,174.994c5.2,1.575,8.434-4.421,8.434-4.421l-3.162-1.8c-1.547,3.673-6.739,3.248-6.739,3.248Z" transform="translate(-261.972 -168.771)"/></g><g transform="translate(39.225 22.595)"><path class="a" d="M240.682,178.881c-2.419.257-2.709,3.3-2.709,3.3l1.62.192c0-1.786,2.213-2.515,2.213-2.515Z" transform="translate(-237.973 -178.881)"/></g><g transform="translate(126.022 52.652)"><path class="b" d="M320.3,197.292c.351-2.408-2.519-3.441-2.519-3.441l-.588,1.521c1.73.44,1.887,2.769,1.887,2.769Z" transform="translate(-317.191 -193.851)"/></g><g transform="translate(53.198 4)"><path class="a" d="M252.02,154.3c.351-2.408-2.52-3.442-2.52-3.442l-.587,1.521c1.729.441,1.887,2.769,1.887,2.769Z" transform="translate(-248.913 -150.862)"/></g><g transform="translate(0 41.946)"><path class="a" d="M203.718,184.9c-.435,3.774,4.566,4.69,4.566,4.69l.9-2.47c-3-.272-3.433-3.806-3.433-3.806Z" transform="translate(-203.692 -183.313)"/></g><g transform="translate(106.614 12.795)"><path class="a" d="M292.666,174.33c2.43.139,3.206-2.811,3.206-2.811l-1.566-.453c-.287,1.762-2.592,2.124-2.592,2.124Z" transform="translate(-291.714 -171.066)"/></g><g transform="translate(101.779 29.286)"><g transform="translate(0)"><g transform="translate(0 5.26)"><path class="b" d="M303.869,181.608a10.315,10.315,0,0,1-4.011,0,10.381,10.381,0,0,1,4.011,0Z" transform="translate(-299.858 -181.412)"/></g><g transform="translate(5.946)"><path class="b" d="M304.8,177.217a10.688,10.688,0,0,1,0,4.07,10.685,10.685,0,0,1,0-4.07Z" transform="translate(-304.6 -177.217)"/></g></g><g transform="translate(6.084 5.13)"><g transform="translate(2.326)"><path class="b" d="M306.565,181.5a10.38,10.38,0,0,1,4.011,0,10.38,10.38,0,0,1-4.011,0Z" transform="translate(-306.565 -181.308)"/></g><g transform="translate(0 1.581)"><path class="b" d="M304.906,186.639a10.685,10.685,0,0,1,0-4.07,10.686,10.686,0,0,1,0,4.07Z" transform="translate(-304.71 -182.569)"/></g></g><g transform="translate(8.08 6.725)"><path class="b" d="M307.744,184.3c-.084.069-.47-.257-.864-.729s-.646-.91-.563-.979.47.257.864.729S307.827,184.228,307.744,184.3Z" transform="translate(-306.301 -182.58)"/></g><g transform="translate(7.841 2.242)"><path class="b" d="M307.6,179.018c.077.075-.192.471-.6.884s-.8.685-.88.609.193-.473.6-.885S307.528,178.941,307.6,179.018Z" transform="translate(-306.111 -179.005)"/></g><g transform="translate(3.316 2.638)"><path class="b" d="M303.924,180.514c-.07.083-.441-.113-.83-.436s-.65-.655-.581-.737.441.112.83.436S303.993,180.43,303.924,180.514Z" transform="translate(-302.502 -179.321)"/></g><g transform="translate(3.197 6.545)"><path class="b" d="M303.767,182.448c.08.074-.157.463-.528.87s-.736.678-.816.606.155-.463.527-.87S303.687,182.376,303.767,182.448Z" transform="translate(-302.407 -182.437)"/></g></g><g transform="translate(11.35 16.854)"><g transform="translate(0 0)"><g transform="translate(0 5.26)"><path class="a" d="M216.754,172.694a10.316,10.316,0,0,1-4.011,0,10.38,10.38,0,0,1,4.011,0Z" transform="translate(-212.743 -172.498)"/></g><g transform="translate(5.945)"><path class="a" d="M217.68,168.3a10.618,10.618,0,0,1,0,4.07,10.685,10.685,0,0,1,0-4.07Z" transform="translate(-217.484 -168.303)"/></g></g><g transform="translate(6.084 5.13)"><g transform="translate(2.326)"><path class="a" d="M219.45,172.59a10.379,10.379,0,0,1,4.011,0,10.381,10.381,0,0,1-4.011,0Z" transform="translate(-219.45 -172.394)"/></g><g transform="translate(0 1.581)"><path class="a" d="M217.791,177.725a10.683,10.683,0,0,1,0-4.07,10.686,10.686,0,0,1,0,4.07Z" transform="translate(-217.595 -173.655)"/></g></g><g transform="translate(8.08 6.725)"><path class="a" d="M220.628,175.383c-.083.069-.469-.257-.863-.729s-.646-.91-.563-.979.469.257.864.729S220.711,175.314,220.628,175.383Z" transform="translate(-219.186 -173.666)"/></g><g transform="translate(7.84 2.242)"><path class="a" d="M220.49,170.1c.077.075-.193.471-.6.884s-.8.685-.879.609.192-.473.6-.885S220.412,170.027,220.49,170.1Z" transform="translate(-218.996 -170.091)"/></g><g transform="translate(3.316 2.638)"><path class="a" d="M216.808,171.6c-.069.083-.44-.113-.83-.436s-.648-.653-.579-.737.441.113.83.436S216.877,171.516,216.808,171.6Z" transform="translate(-215.387 -170.407)"/></g><g transform="translate(3.196 6.545)"><path class="a" d="M216.651,173.534c.08.074-.155.463-.527.87s-.737.678-.818.606.157-.463.528-.87S216.572,173.462,216.651,173.534Z" transform="translate(-215.292 -173.523)"/></g></g></g><g transform="translate(-3450.143 -13070.699)"><ellipse class="c" cx="31" cy="31.5" rx="31" ry="31.5" transform="translate(0.222 -0.302)"/><path class="d" d="M-3554.35-13049.273l10.908,11.3,18.971-19.644" transform="translate(3570.326 13079.48)"/></g></g></svg>